<?xml version="1.0" standalone="no"?>
<!DOCTYPE svg PUBLIC "-//W3C//DTD SVG 20010904//EN"
 "http://www.w3.org/TR/2001/REC-SVG-20010904/DTD/svg10.dtd">
<svg version="1.0" xmlns="http://www.w3.org/2000/svg"
 width="512.000000pt" height="512.000000pt" viewBox="0 0 512.000000 512.000000"
 preserveAspectRatio="xMidYMid meet">
<metadata>
Created by potrace 1.11, written by Peter Selinger 2001-2013
</metadata>
<g transform="translate(0.000000,512.000000) scale(0.100000,-0.100000)"
fill="#000000" stroke="none">
<path d="M1311 5026 c-28 -32 -51 -71 -56 -96 -6 -30 -10 -33 -48 -36 -53 -5
-104 -13 -129 -23 -13 -4 -31 -7 -41 -5 -9 1 -15 -2 -11 -7 4 -8 -19 -13 -30
-6 -2 1 -13 -6 -23 -16 -11 -9 -22 -15 -25 -12 -5 6 -190 -97 -208 -115 -3 -3
-22 -18 -43 -34 -22 -16 -62 -50 -89 -77 -28 -27 -54 -49 -59 -49 -5 0 -9 -5
-9 -10 0 -6 -15 -25 -32 -43 -63 -63 -149 -182 -162 -224 -4 -13 -12 -23 -17
-23 -5 0 -9 -4 -9 -10 0 -5 -11 -34 -25 -64 -14 -30 -25 -62 -25 -70 0 -9 -4
-16 -8 -16 -5 0 -9 -6 -9 -12 -1 -18 -11 -83 -13 -83 -3 0 -11 -40 -14 -75 -2
-19 -4 -38 -5 -42 -1 -5 -8 -8 -16 -8 -17 0 -82 -35 -107 -57 -22 -20 -34 -73
-18 -83 6 -4 11 -11 11 -16 -2 -22 12 -43 46 -70 20 -16 44 -37 52 -46 9 -10
21 -18 28 -18 7 0 13 -4 13 -10 0 -5 7 -10 15 -10 9 0 18 -7 21 -15 4 -8 12
-15 18 -15 7 0 34 -32 61 -71 26 -38 68 -90 92 -115 l43 -45 -20 -29 c-19 -27
-93 -190 -86 -190 2 0 -2 -21 -10 -47 -8 -25 -14 -63 -14 -83 0 -33 4 -40 34
-54 48 -23 92 -3 101 46 13 66 19 88 43 148 14 36 29 67 34 68 4 2 6 8 2 13
-3 5 0 9 6 9 6 0 8 5 4 13 -10 15 17 -5 69 -54 22 -20 37 -41 34 -46 -7 -10
-18 -66 -21 -98 -1 -11 -5 -25 -9 -32 -4 -6 -1 -14 5 -16 10 -4 10 -8 -1 -15
-9 -7 -10 -12 -2 -16 6 -4 9 -11 7 -15 -8 -13 33 -51 55 -51 23 0 61 18 71 33
3 6 7 29 7 51 1 23 3 52 5 66 3 14 5 28 5 33 3 24 48 -27 70 -78 2 -5 11 -17
20 -25 9 -8 22 -27 29 -42 6 -16 16 -28 22 -28 5 0 10 -7 10 -15 0 -8 5 -15
10 -15 6 0 10 -7 10 -15 0 -8 5 -15 10 -15 6 0 10 -6 10 -14 0 -8 5 -16 12
-18 6 -2 13 -26 14 -54 1 -27 3 -49 4 -49 1 0 3 -16 6 -35 4 -37 41 -138 56
-154 4 -6 8 -18 8 -29 0 -10 4 -16 8 -13 4 2 14 -10 22 -27 7 -18 16 -34 20
-37 3 -3 20 -25 37 -50 33 -48 146 -163 203 -206 42 -32 172 -94 182 -88 5 3
8 2 8 -3 0 -4 10 -20 23 -34 113 -132 139 -160 326 -354 27 -27 82 -79 122
-115 41 -36 83 -74 94 -85 12 -11 48 -40 81 -65 32 -25 61 -48 62 -53 2 -4 9
-13 15 -20 7 -6 32 -37 57 -67 25 -30 53 -64 63 -74 9 -11 17 -24 17 -28 0 -5
4 -7 9 -3 5 3 12 -4 16 -14 8 -27 270 -289 381 -381 141 -118 126 -107 204
-160 36 -25 67 -47 70 -50 6 -6 39 -25 85 -49 16 -9 35 -21 41 -27 11 -9 65
-32 199 -84 115 -44 280 -39 338 10 87 72 105 120 83 220 -7 31 -83 197 -96
210 -7 7 -34 57 -67 123 -15 31 -31 57 -35 57 -5 0 -8 9 -8 20 0 11 -4 20 -9
20 -5 0 -12 7 -15 16 -6 15 -4 15 11 3 17 -13 172 -148 183 -159 27 -27 123
-111 154 -135 22 -17 54 -44 73 -62 18 -17 33 -29 33 -27 0 2 8 -4 18 -13 10
-10 33 -29 52 -43 18 -14 38 -29 44 -35 6 -5 29 -23 51 -40 22 -16 49 -38 60
-48 11 -10 32 -26 48 -35 15 -9 27 -20 27 -24 0 -4 6 -8 14 -8 8 0 22 -10 30
-22 9 -12 16 -19 16 -15 0 5 27 -12 59 -37 33 -25 64 -46 69 -46 6 0 12 -4 14
-8 3 -8 82 -63 108 -75 8 -4 33 -18 55 -32 38 -24 139 -76 160 -82 84 -24 106
-26 121 -12 22 22 24 54 9 107 -15 48 -57 135 -89 184 -10 16 -16 28 -12 28 3
0 -3 9 -14 20 -11 11 -20 27 -20 35 0 8 -4 15 -10 15 -5 0 -16 15 -25 34 -9
18 -25 43 -35 54 -11 12 -20 26 -20 32 0 5 -4 10 -8 10 -4 0 -16 15 -27 33
-10 17 -21 34 -24 37 -3 3 -18 23 -33 45 -15 22 -38 52 -50 67 -49 57 -58 68
-58 74 0 3 -6 11 -12 18 -7 7 -24 28 -38 46 -14 18 -32 41 -40 50 -8 10 -31
37 -49 60 -19 24 -41 48 -48 56 -7 7 -13 16 -13 21 0 4 -9 14 -20 21 -11 7
-20 16 -20 21 0 5 -15 25 -32 44 -50 53 -160 176 -188 210 -14 17 -38 43 -54
59 -41 40 -23 35 69 -18 44 -25 114 -64 155 -86 41 -22 82 -43 90 -48 45 -25
116 -51 155 -57 94 -12 180 51 212 155 14 48 16 156 2 202 -25 85 -44 140 -59
175 -10 22 -21 47 -24 55 -3 8 -24 44 -46 80 -22 36 -46 77 -52 93 -7 15 -16
27 -20 27 -4 0 -8 7 -8 15 0 8 -5 15 -11 15 -5 0 -7 5 -4 10 3 6 -1 10 -9 10
-9 0 -16 7 -16 15 0 8 -4 15 -10 15 -5 0 -10 5 -10 11 0 9 -55 80 -150 194
-34 40 -320 329 -320 323 0 -3 -19 13 -43 36 -24 22 -61 55 -81 71 -21 17 -55
45 -75 62 -20 18 -39 33 -43 33 -5 0 -8 5 -8 11 0 7 -11 22 -26 35 -14 13 -23
24 -20 24 6 0 -23 33 -105 121 -31 32 -54 59 -52 59 2 0 -14 15 -34 34 -21 19
-78 74 -128 122 -75 72 -209 194 -263 239 -50 41 -73 67 -77 84 -2 11 -9 29
-15 40 -6 12 -7 21 -3 21 4 0 3 4 -2 8 -6 4 -17 20 -25 37 -31 61 -190 224
-277 283 -61 42 -203 115 -203 105 0 -3 -7 0 -15 7 -9 7 -18 10 -21 7 -3 -3
-21 1 -40 9 -19 8 -34 10 -34 4 0 -6 -9 -6 -25 0 -14 5 -25 6 -25 1 0 -5 -13
-4 -30 2 -16 6 -30 15 -30 19 0 4 -6 8 -13 8 -8 0 -22 9 -32 20 -10 11 -24 20
-31 20 -7 0 -14 4 -16 8 -1 5 -43 35 -91 67 -100 67 -99 72 10 82 64 6 93 19
93 42 0 6 4 11 10 11 13 0 -7 51 -29 71 -17 16 -36 17 -173 6 -10 -1 -18 -5
-18 -10 0 -4 -4 -6 -9 -2 -5 3 -12 1 -16 -5 -6 -10 -35 11 -35 25 0 3 -13 19
-30 35 -16 16 -30 34 -30 39 0 12 52 41 75 41 8 0 15 5 15 10 0 6 3 9 8 8 4
-1 32 6 62 15 30 9 68 19 84 21 52 9 73 59 45 105 -13 22 -26 31 -45 31 -60 0
-243 -60 -304 -100 -14 -9 -30 -20 -37 -24 -7 -4 -31 12 -58 39 -25 25 -50 45
-55 45 -4 0 -10 4 -12 8 -1 5 -25 23 -53 42 -49 33 -95 74 -85 75 8 2 -44 75
-52 75 -5 0 -8 7 -8 16 0 8 -4 13 -8 10 -5 -3 -15 6 -22 20 -32 60 -133 89
-169 50z"/>
</g>
</svg>
